<svg version="1.1" xmlns="http://www.w3.org/2000/svg" xmlns:xlink="http://www.w3.org/1999/xlink" width="21.73226" height="21.74295" viewBox="0,0,21.73226,21.74295"><g transform="translate(-229.13388,-169.12851)"><g data-paper-data="{&quot;isPaintingLayer&quot;:true}" fill-rule="evenodd" stroke-miterlimit="10" stroke-dasharray="" stroke-dashoffset="0" style="mix-blend-mode: normal"><g fill="#ffffff" stroke="#ffffff" stroke-width="2.5"><path d="M240.4646,181.89584c-1.35636,0 -2.5468,-0.20882 -3.07328,-0.4676c0.24093,-0.47293 0.37479,-0.99942 0.37479,-1.55268c-0.00892,-0.56218 -0.14278,-1.08866 -0.37479,-1.57053c0.53541,-0.24985 1.38314,-0.40155 2.72165,-0.40155c3.22137,-0.00892 8.04895,0.8745 8.04895,1.96316c0,0.73535 -1.83132,1.40562 -4.25096,1.74468c-0.30833,0.0432 -3.35022,0.28451 -3.44636,0.28452zM234.18977,181.84884c-0.52213,-0.00898 -0.99721,-0.21921 -1.35641,-0.54531l-0.00828,0.00828l-0.08567,-0.08567c-2.37853,-2.213 -0.78191,-5.81414 -0.26695,-4.7529c0.68063,1.39241 1.61439,1.29987 1.64722,1.29959c1.12021,0.02768 2.04536,0.95284 2.07305,2.07305c0.01941,1.12848 -0.88275,2.03064 -2.00296,2.00296z" stroke-linecap="round" stroke-linejoin="round"/><path d="M231.11416,175.17815c-0.26924,0.26993 -0.73026,0.0795 -0.73026,-0.29767v-4.07301c0,-0.22926 0.19363,-0.42339 0.42783,-0.42893l4.05701,0.00554c0.37619,0 0.57167,0.45666 0.2969,0.73214l-0.95893,0.9614l2.61493,3.4666c0.23973,0.30876 0.24527,0.75989 0.00001,1.08713c-0.30243,0.40674 -0.8741,0.48624 -1.26874,0.18303l-3.45768,-2.61982l-0.98105,0.98359" stroke-linecap="butt" stroke-linejoin="miter"/><path d="M244.81651,171.11949c-0.26993,-0.26924 -0.0795,-0.73026 0.29767,-0.73026h4.07301c0.22926,0 0.42339,0.19363 0.42893,0.42783l-0.00554,4.05701c0,0.37619 -0.45666,0.57167 -0.73214,0.2969l-0.9614,-0.95893l-3.4666,2.61493c-0.30876,0.23973 -0.75989,0.24527 -1.08713,0.00001c-0.40674,-0.30243 -0.48624,-0.8741 -0.18303,-1.26874l2.61982,-3.45768l-0.98359,-0.98105" stroke-linecap="butt" stroke-linejoin="miter"/><path d="M244.8165,188.8805l0.98359,-0.98105l-2.61982,-3.45768c-0.30321,-0.39464 -0.22371,-0.9663 0.18303,-1.26874c0.32724,-0.24526 0.77837,-0.23972 1.08713,0.00001l3.4666,2.61493l0.9614,-0.95893c0.27547,-0.27477 0.73214,-0.07929 0.73214,0.2969l0.00554,4.05701c-0.00554,0.2342 -0.19967,0.42783 -0.42893,0.42783h-4.07301c-0.37716,0 -0.5676,-0.46103 -0.29767,-0.73026" data-paper-data="{&quot;index&quot;:null}" stroke-linecap="butt" stroke-linejoin="miter"/><path d="M231.11416,184.82184l0.98105,0.98359l3.45768,-2.61982c0.39464,-0.30321 0.9663,-0.22371 1.26874,0.18303c0.24526,0.32724 0.23972,0.77837 -0.00001,1.08713l-2.61493,3.4666l0.95893,0.9614c0.27477,0.27547 0.07929,0.73214 -0.2969,0.73214l-4.05701,0.00554c-0.2342,-0.00554 -0.42783,-0.19967 -0.42783,-0.42893v-4.07301c0,-0.37716 0.46103,-0.5676 0.73026,-0.29767" data-paper-data="{&quot;index&quot;:null}" stroke-linecap="butt" stroke-linejoin="miter"/></g><g fill="#575e75" stroke="#575e75" stroke-width="0.5"><path d="M240.4646,181.89584c-1.35636,0 -2.5468,-0.20882 -3.07328,-0.4676c0.24093,-0.47293 0.37479,-0.99942 0.37479,-1.55268c-0.00892,-0.56218 -0.14278,-1.08866 -0.37479,-1.57053c0.53541,-0.24985 1.38314,-0.40155 2.72165,-0.40155c3.22137,-0.00892 8.04895,0.8745 8.04895,1.96316c0,0.73535 -1.83132,1.40562 -4.25096,1.74468c-0.30833,0.0432 -3.35022,0.28451 -3.44636,0.28452zM234.18977,181.84884c-0.52213,-0.00898 -0.99721,-0.21921 -1.35641,-0.54531l-0.00828,0.00828l-0.08567,-0.08567c-2.37853,-2.213 -0.78191,-5.81414 -0.26695,-4.7529c0.68063,1.39241 1.61439,1.29987 1.64722,1.29959c1.12021,0.02768 2.04536,0.95284 2.07305,2.07305c0.01941,1.12848 -0.88275,2.03064 -2.00296,2.00296z" stroke-linecap="round" stroke-linejoin="round"/><path d="M231.11416,175.17815c-0.26924,0.26993 -0.73026,0.0795 -0.73026,-0.29767v-4.07301c0,-0.22926 0.19363,-0.42339 0.42783,-0.42893l4.05701,0.00554c0.37619,0 0.57167,0.45666 0.2969,0.73214l-0.95893,0.9614l2.61493,3.4666c0.23973,0.30876 0.24527,0.75989 0.00001,1.08713c-0.30243,0.40674 -0.8741,0.48624 -1.26874,0.18303l-3.45768,-2.61982l-0.98105,0.98359" stroke-linecap="butt" stroke-linejoin="miter"/><path d="M244.81651,171.11949c-0.26993,-0.26924 -0.0795,-0.73026 0.29767,-0.73026h4.07301c0.22926,0 0.42339,0.19363 0.42893,0.42783l-0.00554,4.05701c0,0.37619 -0.45666,0.57167 -0.73214,0.2969l-0.9614,-0.95893l-3.4666,2.61493c-0.30876,0.23973 -0.75989,0.24527 -1.08713,0.00001c-0.40674,-0.30243 -0.48624,-0.8741 -0.18303,-1.26874l2.61982,-3.45768l-0.98359,-0.98105" stroke-linecap="butt" stroke-linejoin="miter"/><path d="M244.8165,188.8805l0.98359,-0.98105l-2.61982,-3.45768c-0.30321,-0.39464 -0.22371,-0.9663 0.18303,-1.26874c0.32724,-0.24526 0.77837,-0.23972 1.08713,0.00001l3.4666,2.61493l0.9614,-0.95893c0.27547,-0.27477 0.73214,-0.07929 0.73214,0.2969l0.00554,4.05701c-0.00554,0.2342 -0.19967,0.42783 -0.42893,0.42783h-4.07301c-0.37716,0 -0.5676,-0.46103 -0.29767,-0.73026" data-paper-data="{&quot;index&quot;:null}" stroke-linecap="butt" stroke-linejoin="miter"/><path d="M231.11416,184.82184l0.98105,0.98359l3.45768,-2.61982c0.39464,-0.30321 0.9663,-0.22371 1.26874,0.18303c0.24526,0.32724 0.23972,0.77837 -0.00001,1.08713l-2.61493,3.4666l0.95893,0.9614c0.27477,0.27547 0.07929,0.73214 -0.2969,0.73214l-4.05701,0.00554c-0.2342,-0.00554 -0.42783,-0.19967 -0.42783,-0.42893v-4.07301c0,-0.37716 0.46103,-0.5676 0.73026,-0.29767" data-paper-data="{&quot;index&quot;:null}" stroke-linecap="butt" stroke-linejoin="miter"/></g></g></g></svg>